<svg
  width="32"
  height="32"
  viewBox="0 0 32 32"
  fill="none"
  xmlns="http://www.w3.org/2000/svg"
>
  <path
    d="M15.9998 28.6666L15.9998 27.3333L15.9998 28.6666ZM15.9998 4.66659C15.2635 4.66659 14.6665 4.06963 14.6665 3.33325C14.6665 2.59687 15.2635 1.99992 15.9998 1.99992L15.9998 4.66659ZM1.99984 15.9999C1.99984 15.2635 2.59679 14.6666 3.33317 14.6666C4.06955 14.6666 4.6665 15.2635 4.6665 15.9999L1.99984 15.9999ZM15.9998 27.3333C22.2591 27.3333 27.3332 22.2591 27.3332 15.9999L29.9998 15.9999C29.9998 23.7319 23.7318 29.9999 15.9998 29.9999L15.9998 27.3333ZM27.3332 15.9999C27.3332 9.74069 22.2591 4.66658 15.9998 4.66659L15.9998 1.99992C23.7318 1.99992 29.9998 8.26793 29.9998 15.9999L27.3332 15.9999ZM15.9998 29.9999C14.1613 29.9999 12.3408 29.6378 10.6423 28.9342L11.6628 26.4706C13.0378 27.0401 14.5115 27.3333 15.9998 27.3333L15.9998 29.9999ZM10.6423 28.9342C8.94371 28.2307 7.40036 27.1994 6.10034 25.8994L7.98596 24.0138C9.03836 25.0662 10.2877 25.901 11.6628 26.4706L10.6423 28.9342ZM6.10034 25.8994C4.80032 24.5994 3.76909 23.056 3.06552 21.3575L5.5292 20.337C6.09875 21.712 6.93356 22.9614 7.98596 24.0138L6.10034 25.8994ZM3.06552 21.3575C2.36196 19.6589 1.99984 17.8384 1.99984 15.9999L4.6665 15.9999C4.6665 17.4882 4.95965 18.962 5.5292 20.337L3.06552 21.3575Z"
    fill="#DF57BC"
  />

  <animateTransform
    attributeName="transform"
    attributeType="XML"
    type="rotate"
    from="0"
    to="360"
    dur="1s"
    repeatCount="indefinite"
  />
</svg>
